<?xml version="1.0" encoding="utf-8" ?>
<svg xmlns="http://www.w3.org/2000/svg" xmlns:xlink="http://www.w3.org/1999/xlink" width="500" height="500">
	<path fill="#004BAE" d="M55.5152 182.026Q63.7484 182.09 71.9816 182.054C85.7583 182.063 94.9181 183.218 105.197 193.438C112.424 200.624 115.811 209.888 115.805 219.997C115.798 230.763 112.098 239.726 104.463 247.318C94.0787 256.929 85.6056 257.937 72.0508 257.96Q63.7851 257.941 55.5195 258.016L55.5152 182.026ZM72.8593 242.53C79.5575 242.262 85.7713 241.558 90.6663 236.432C95.0296 231.728 97.4449 225.892 97.1982 219.406C96.9546 213.004 94.8174 207.182 90.0575 202.778C86.6839 199.657 82.2809 197.966 77.7385 197.565C76.0917 197.419 74.373 197.484 72.7462 197.238C73.1919 212.3 72.7502 227.454 72.8593 242.53Z"/>
	<path fill="#004BAE" d="M166.683 230.528C168.048 225.518 169.848 221.2 173.525 217.41Q173.985 216.934 174.468 216.482Q174.951 216.03 175.456 215.602Q175.961 215.175 176.487 214.773Q177.013 214.372 177.559 213.997Q178.104 213.622 178.667 213.276Q179.231 212.929 179.811 212.61Q180.391 212.292 180.986 212.003Q181.582 211.714 182.191 211.456Q182.8 211.197 183.421 210.969Q184.042 210.741 184.674 210.545Q185.306 210.348 185.947 210.184Q186.588 210.019 187.236 209.887Q187.885 209.755 188.539 209.655Q189.193 209.555 189.851 209.489Q190.51 209.422 191.17 209.388Q191.831 209.355 192.493 209.354C199.502 209.278 206.481 211.375 211.515 216.428C216.994 221.928 217.974 229.302 217.979 236.736C215.325 236.527 212.577 236.645 209.913 236.626L191.815 236.634C189.014 236.637 186.137 236.828 183.351 236.526C183.745 238.82 184.13 240.78 185.638 242.642C187.341 244.745 189.925 245.92 192.574 246.24C198.105 246.909 201.366 244.46 205.493 241.248C209.319 243.1 213.62 244.834 217.114 247.226C215.85 249.097 214.44 250.848 212.792 252.396C207.322 257.538 199.947 259.524 192.563 259.294C185.844 259.248 179.814 257.081 174.841 252.51C170.2 248.245 167.173 242.966 166.92 236.609C161.065 237.042 154.991 236.716 149.107 236.704C143.57 236.693 137.838 237 132.327 236.555C132.776 238.837 133.239 240.765 134.759 242.621C136.539 244.796 139.185 246.038 141.958 246.293C147.559 246.808 150.327 244.511 154.402 241.119L166.214 246.975C165.424 248.179 164.609 249.326 163.664 250.415C158.562 256.291 151.708 258.825 144.074 259.359C136.748 259.87 129.778 257.778 124.231 252.916C119.448 248.723 116.179 242.763 115.765 236.364C115.325 229.572 117.276 223.259 121.82 218.153C126.926 212.416 133.511 209.781 141.059 209.358C147.507 209.156 154.092 210.937 159.069 215.148C163.802 219.153 166.143 224.425 166.683 230.528ZM183.804 227.547L195.313 227.532C197.603 227.541 199.93 227.463 202.215 227.619C201.288 224.803 200.252 222.199 197.402 220.799C195.587 219.908 193.495 219.895 191.524 220.081C189.232 220.425 187.249 221.041 185.783 222.983C184.736 224.37 184.278 225.9 183.804 227.547ZM132.735 227.548Q137.783 227.491 142.831 227.514L151.055 227.517C150.27 224.874 149.344 222.54 146.806 221.098C145.162 220.164 142.836 219.852 140.967 220.089C138.6 220.408 136.601 220.89 135.035 222.873C133.94 224.261 133.375 225.923 132.735 227.548Z"/>
	<path fill="#004BAE" d="M279.435 182.055C286.08 182.132 292.729 182.076 299.375 182.075C304.534 182.075 310.079 181.758 315.136 182.901C319.4 183.865 323.465 185.73 326.656 188.766C331.16 193.049 332.848 198.374 332.935 204.474C333.032 211.295 331.566 217.34 326.67 222.32C320.354 228.743 312.868 229.62 304.312 229.716C301.739 229.729 299.148 229.809 296.58 229.638C296.812 232.576 296.593 235.661 296.589 238.615Q296.555 248.306 296.623 257.997C290.934 257.742 285.156 257.921 279.459 257.976C279.013 252.095 279.302 246.045 279.31 240.137L279.298 209.351L279.284 190.897C279.283 188.106 278.935 184.764 279.435 182.055ZM296.6 216.023C301.83 216.072 306.974 216.266 311.463 213.199C313.555 211.384 314.566 209.386 314.719 206.595C314.859 204.034 314.376 201.352 312.543 199.441C308.756 195.491 301.502 195.755 296.495 195.7C296.92 199.363 296.621 203.29 296.615 206.984C296.611 209.971 296.837 213.055 296.6 216.023Z"/>
	<path fill="#004BAE" d="M249.418 209.557C255.909 209.058 261.728 210.006 266.956 214.131Q267.435 214.51 267.894 214.912Q268.353 215.314 268.792 215.738Q269.231 216.163 269.648 216.609Q270.065 217.054 270.459 217.52Q270.853 217.986 271.223 218.472Q271.594 218.957 271.94 219.46Q272.286 219.963 272.606 220.482Q272.926 221.002 273.22 221.537Q273.514 222.072 273.781 222.621Q274.048 223.17 274.287 223.731Q274.526 224.293 274.737 224.866Q274.948 225.439 275.13 226.021Q275.313 226.604 275.465 227.195Q275.618 227.786 275.741 228.384Q275.865 228.981 275.958 229.585Q276.051 230.188 276.114 230.795C276.9 237.861 275.309 245.167 270.784 250.758C266.884 255.578 261.502 258.581 255.327 259.218C248.375 259.934 242.645 257.942 237.301 253.561C237.76 259.613 237.425 265.896 237.399 271.975L237.37 281.947C232.005 281.824 226.443 281.539 221.091 281.971L221.013 210.729Q229.093 210.79 237.172 210.668C237.281 212.553 237.25 214.393 236.982 216.262C240.725 212.519 244.206 210.563 249.418 209.557ZM249.66 245.323C252.699 244.678 255.449 243.247 257.223 240.603C258.981 237.984 259.357 234.759 258.713 231.718C258.119 228.908 256.503 226.484 254.058 224.953C251.87 223.583 249.288 223.133 246.74 223.339C243.653 223.786 240.974 224.985 239.091 227.582C237.272 230.089 236.687 233.37 237.236 236.393C237.767 239.316 239.334 241.929 241.801 243.614C244.279 245.307 246.776 245.45 249.66 245.323Z"/>
	<path fill="#004BAE" d="M400.218 178.782C405.567 178.98 411.005 178.767 416.362 178.74L416.394 209.357C416.423 215.261 416.881 221.573 416.162 227.416C419.11 224.493 422.078 221.583 424.986 218.619C427.564 215.99 430.061 212.67 433.252 210.798C440.102 210.514 447.029 210.742 453.889 210.718C446.522 218.348 439.062 226.019 431.38 233.329C433.386 234.754 435.131 236.911 436.864 238.667Q441.479 243.352 446.176 247.955C449.503 251.339 452.799 254.897 456.443 257.943C449.511 258.197 442.461 258.056 435.524 257.955C431.879 255.234 428.73 251.557 425.546 248.306C422.428 245.124 419.171 242.044 416.188 238.736C417.004 244.47 416.478 252.029 416.472 257.958C410.991 257.839 405.492 257.917 400.009 257.915L400.149 200.208L400.112 186.729C400.088 184.171 399.737 181.275 400.218 178.782Z"/>
	<path fill="#004BAE" d="M380.678 209.36C386.535 208.79 392.855 210.626 397.858 213.576C396.268 217.379 394.319 221.069 392.5 224.768Q391.965 224.444 391.402 224.171C388.144 222.615 384.226 222.075 380.785 223.333Q380.244 223.534 379.726 223.788Q379.208 224.043 378.718 224.348Q378.228 224.654 377.772 225.007Q377.315 225.36 376.897 225.758Q376.478 226.155 376.102 226.593Q375.726 227.031 375.396 227.505Q375.066 227.978 374.785 228.482Q374.504 228.987 374.276 229.517C373.01 232.453 373.002 236.006 374.221 238.959C375.352 241.698 377.503 244.03 380.264 245.161C384.47 246.884 388.617 245.564 392.592 243.975C394.153 247.865 396.426 251.455 397.929 255.361C394.163 257.588 389.648 258.714 385.323 259.144C377.954 259.879 370.813 258.036 365.09 253.247C360.057 249.036 356.608 243.35 356.064 236.739C355.53 230.263 357.301 224.11 361.531 219.14C366.579 213.208 372.925 209.955 380.678 209.36Z"/>
	<path fill="#004BAE" d="M336.398 210.587C341.571 211.218 347.244 210.746 352.467 210.736C352.47 226.014 352.752 241.364 352.501 256.632C352.49 257.318 352.482 257.526 351.984 258.002Q344.049 257.952 336.115 258.005C336.237 247.698 336.21 237.361 336.141 227.053C336.107 221.964 335.736 216.673 336.036 211.611C336.061 211.183 336.158 210.938 336.398 210.587Z"/>
	<path fill="#004BAE" d="M342.974 181.559C345.097 181.471 346.99 181.662 348.912 182.681Q349.349 182.914 349.76 183.19Q350.171 183.467 350.551 183.783Q350.932 184.1 351.279 184.454Q351.625 184.808 351.934 185.195Q352.243 185.582 352.511 185.998Q352.779 186.415 353.003 186.856Q353.227 187.298 353.405 187.76Q353.583 188.222 353.713 188.7C354.396 191.228 354.082 193.94 352.713 196.186C351.204 198.66 348.821 200.119 346.043 200.73C343.744 200.8 341.848 200.76 339.762 199.605C337.481 198.343 335.69 196.124 335.017 193.598C334.342 191.069 334.84 188.233 336.237 186.032C337.783 183.596 340.197 182.154 342.974 181.559Z"/>
</svg>
