<?xml version="1.0" encoding="utf-8" ?>
<svg xmlns="http://www.w3.org/2000/svg" xmlns:xlink="http://www.w3.org/1999/xlink" width="512" height="512">
	<path d="M225.551 0L286.193 0C286.263 0.0254619 286.333 0.0521371 286.403 0.0763856C288.742 0.882009 291.454 1.02168 293.891 1.47527C296.664 1.9916 299.431 2.81215 302.116 3.6761Q303.032 3.97074 303.941 4.28803Q304.85 4.60533 305.751 4.94507Q306.652 5.28481 307.544 5.64679Q308.436 6.00877 309.318 6.39277Q310.201 6.77677 311.074 7.18255Q311.947 7.58833 312.81 8.01565Q313.672 8.44296 314.524 8.89155Q315.376 9.34013 316.216 9.80971Q317.056 10.2793 317.885 10.7696Q318.713 11.2598 319.529 11.7705Q320.345 12.2812 321.148 12.812Q321.951 13.3427 322.741 13.8933Q323.531 14.4438 324.307 15.0138Q325.082 15.5837 325.844 16.1727Q326.605 16.7618 327.352 17.3695Q328.098 17.9772 328.83 18.6033Q329.561 19.2294 330.276 19.8734Q330.992 20.5174 331.691 21.179Q332.39 21.8405 333.073 22.5192Q333.756 23.198 334.421 23.8934Q335.087 24.5888 335.735 25.3006Q336.383 26.0123 337.014 26.7399Q337.644 27.4675 338.256 28.2105Q338.868 28.9536 339.461 29.7115Q340.055 30.4695 340.629 31.242Q341.204 32.0144 341.759 32.8009Q342.314 33.5874 342.849 34.3874Q343.385 35.1874 343.9 36.0004Q344.416 36.8135 344.911 37.6391Q345.406 38.4646 345.88 39.3022Q346.355 40.1398 346.808 40.989Q347.262 41.8381 347.694 42.6982C356.937 61.0888 355.522 72.9171 355.952 92.3963C360.892 94.3326 367.93 96.5193 370.211 101.838C371.558 104.979 370.886 109.179 369.544 112.25C368.122 115.505 365.629 118.302 362.736 120.333C366.227 133.385 366.49 147.842 359.457 159.861C356.244 165.352 351.405 169.997 345.116 171.618C341.557 172.535 337.484 172.569 333.97 171.424C332.741 174.885 331.493 178.336 329.883 181.642C338.327 175.828 347.127 171.73 357.144 169.418Q363.368 168.025 369.732 167.59C378.46 167.022 387.408 167.414 396.166 167.416C408.361 167.419 421.827 166.553 433.764 168.768Q435.996 169.183 438.2 169.729Q440.403 170.275 442.571 170.95Q444.739 171.625 446.863 172.426Q448.987 173.227 451.061 174.152Q453.134 175.077 455.149 176.123Q457.165 177.168 459.115 178.331Q461.065 179.493 462.944 180.768Q464.822 182.043 466.622 183.427C468.657 184.983 471.036 186.644 472.456 188.8C473.609 190.551 473.93 192.438 473.472 194.478C473.163 195.852 472.554 196.921 471.796 198.081C474.891 201.084 479.988 207.866 481.606 211.886C483.928 211.326 486.239 211.232 488.336 212.567C492.646 215.312 494.511 225.056 495.459 230.008C497.323 239.739 497.105 249.91 496.909 259.775C503.284 262.371 508.67 264.069 512 270.574L512 275.715C509.908 281.369 508.409 283.969 503.756 287.879C507.191 300.916 507.514 315.094 500.563 327.135C497.31 332.771 492.29 337.523 485.865 339.18C482.354 340.086 478.307 340.029 474.842 338.96C468.673 358.745 453.982 376.546 435.592 386.173C432.939 387.562 430.014 388.682 427.533 390.354C427.49 396.498 427.763 402.759 427.432 408.887C434.292 409.054 441.26 408.717 448.09 409.366Q449.547 409.514 450.997 409.727Q452.446 409.939 453.885 410.215Q455.324 410.492 456.749 410.831Q458.174 411.171 459.582 411.574Q460.991 411.976 462.38 412.441Q463.769 412.905 465.137 413.431Q466.504 413.956 467.847 414.542Q469.19 415.127 470.506 415.772Q471.821 416.416 473.107 417.118Q474.393 417.82 475.646 418.578Q476.9 419.336 478.118 420.149Q479.337 420.962 480.519 421.828Q481.7 422.694 482.842 423.612Q483.984 424.529 485.084 425.496Q486.185 426.464 487.241 427.478Q488.298 428.493 489.308 429.554Q490.267 430.556 491.182 431.598Q492.098 432.64 492.969 433.72Q493.84 434.8 494.664 435.915Q495.489 437.03 496.266 438.179Q497.043 439.328 497.771 440.509Q498.499 441.69 499.176 442.901Q499.853 444.111 500.479 445.349Q501.105 446.587 501.678 447.85Q502.251 449.113 502.771 450.399Q503.29 451.685 503.755 452.992Q504.219 454.299 504.629 455.625Q505.038 456.95 505.391 458.292Q505.744 459.633 506.04 460.988Q506.336 462.343 506.575 463.71Q506.814 465.076 506.995 466.451Q507.176 467.826 507.299 469.208C507.795 474.773 507.589 480.429 507.578 486.012C507.567 491.725 507.76 497.464 507.624 503.173C507.566 505.616 507.212 507.929 505.391 509.712C504.408 510.674 503.109 511.31 501.93 512L291.994 512C290.988 511.427 289.898 510.82 288.989 510.097C287.143 508.628 286.654 506.852 286.413 504.584C277.318 504.134 268.087 504.442 258.979 504.437C247.875 504.432 236.715 504.182 225.618 504.555C225.287 506.912 224.735 508.715 222.771 510.241C221.873 510.938 220.841 511.365 219.925 512L62.2414 512C61.4584 511.501 60.6535 511.035 59.8825 510.517C57.6371 509.011 56.9708 507.08 56.4719 504.565C54.0241 504.667 51.5322 504.534 49.0775 504.556C46.0665 504.582 42.657 504.931 39.6973 504.458C39.342 506.9 38.8238 508.754 36.7461 510.31C35.9012 510.943 34.9833 511.428 34.0633 511.935C34.0301 511.954 34.0009 511.978 33.9697 512L9.97685 512C8.77338 511.289 7.3313 510.58 6.3388 509.591C5.34259 508.599 4.86627 507.301 4.60813 505.939C3.91154 502.264 4.33072 498.033 4.35818 494.299Q4.41849 486.037 4.37367 477.774C4.42654 458.594 10.3896 441.501 24.2336 427.85Q25.224 426.884 26.2538 425.959Q27.2837 425.035 28.3513 424.155Q29.4189 423.274 30.5223 422.439Q31.6258 421.604 32.7631 420.816Q33.9005 420.027 35.0698 419.287Q36.2391 418.547 37.4383 417.857Q38.6375 417.166 39.8645 416.526Q41.0915 415.887 42.3442 415.299Q43.5969 414.711 44.873 414.175Q46.1492 413.64 47.4466 413.159Q48.744 412.677 50.0603 412.251Q51.3767 411.824 52.7097 411.453Q54.0428 411.081 55.3902 410.766Q56.7376 410.451 58.097 410.192Q59.4564 409.933 60.8254 409.731Q62.1944 409.529 63.5707 409.385C70.4781 408.699 77.5322 408.989 84.4664 409.034C84.1541 402.8 84.4641 396.385 84.4596 390.132C81.3972 388.392 78.0487 387.096 74.9476 385.381C57.4244 375.694 42.7171 358.368 37.1822 338.994C33.3369 339.878 29.5022 340.103 25.6623 339.04C19.1727 337.244 14.3353 332.476 11.112 326.715C4.56998 315.022 4.72579 300.454 8.2709 287.883C5.17708 285.617 3.00463 283.155 1.43843 279.627C0.99722 278.633 0.702783 277.57 0.202183 276.605L0 276.224L0 270.342C0.690259 269.367 1.19364 268.284 1.93773 267.332C5.16736 263.202 10.2969 261.601 15.0306 259.865C15.3098 254.473 14.999 249.014 15.142 243.609C15.5078 229.788 19.0912 216.618 26.2529 204.772Q26.7433 203.955 27.2537 203.151Q27.7642 202.346 28.2944 201.555Q28.8247 200.763 29.3744 199.985Q29.9241 199.207 30.493 198.443Q31.0618 197.678 31.6494 196.928Q32.237 196.179 32.843 195.443Q33.4491 194.708 34.0731 193.988Q34.6972 193.269 35.3389 192.564Q35.9806 191.86 36.6396 191.172Q37.2986 190.484 37.9745 189.813Q38.6503 189.141 39.3426 188.486Q40.0349 187.832 40.7432 187.195Q41.4515 186.558 42.1754 185.938Q42.8992 185.319 43.6383 184.717Q44.3773 184.116 45.131 183.533Q45.8847 182.951 46.6526 182.387Q47.4205 181.823 48.2022 181.278Q48.9838 180.733 49.7787 180.208Q50.5737 179.683 51.3814 179.178Q52.1891 178.673 53.0091 178.187Q53.829 177.702 54.6608 177.238Q55.4926 176.773 56.3356 176.329Q57.1786 175.885 58.0324 175.463Q58.8861 175.04 59.7501 174.638Q60.6141 174.237 61.4878 173.857Q62.3615 173.477 63.2443 173.119Q64.1271 172.76 65.0186 172.424Q65.91 172.088 66.8095 171.774Q67.709 171.46 68.616 171.169Q69.523 170.877 70.437 170.608Q71.3509 170.339 72.2713 170.093Q73.1916 169.846 74.1178 169.623Q80.6612 168.048 87.3758 167.587C95.1456 167.032 103.157 167.425 110.956 167.422C125.107 167.417 142.025 166.355 155.615 169.584C165.285 171.882 173.5 176.134 181.902 181.279C180.427 178.135 179.265 174.884 178.112 171.614C174.246 172.271 170.364 172.547 166.536 171.515C160.303 169.834 155.445 165.101 152.307 159.61C145.533 147.754 145.759 133.158 149.269 120.352C146.242 118.261 143.588 115.239 142.21 111.808C140.954 108.684 140.439 104.807 141.861 101.663C144.308 96.2546 150.902 94.3768 155.969 92.4194C156.253 87.1715 156.013 81.8917 156.119 76.6366C156.367 64.3661 159.129 52.662 164.791 41.7145Q165.651 40.05 166.59 38.4292Q167.529 36.8084 168.546 35.2352Q169.563 33.6619 170.655 32.1399Q171.747 30.6178 172.912 29.1506Q174.077 27.6834 175.311 26.2744Q176.546 24.8655 177.847 23.5182Q179.149 22.1708 180.514 20.8882Q181.88 19.6057 183.306 18.3909Q184.732 17.1762 186.215 16.0321Q187.699 14.888 189.236 13.8173Q190.773 12.7466 192.36 11.7517Q193.948 10.7569 195.582 9.84033Q197.215 8.92375 198.892 8.08757Q200.568 7.25139 202.283 6.49758Q203.998 5.74377 205.747 5.07412Q207.497 4.40446 209.277 3.82054Q213.551 2.43298 217.961 1.56822C220.383 1.1055 223 0.839715 225.341 0.0720156C225.412 0.0489737 225.481 0.0240052 225.551 0ZM286.537 222.765C286.496 226.059 286.033 239.021 286.673 241.235L286.841 241.393L297.124 241.543C297.556 235.485 298.372 229.587 300.036 223.73C300.447 222.285 303.464 214.287 303.42 213.718L303.185 213.471C299.937 215.663 296.637 217.671 293.148 219.459C291 220.56 288.554 221.467 286.537 222.765ZM214.814 241.396Q220.143 241.487 225.473 241.509C225.475 235.19 225.596 228.841 225.419 222.525C222.77 221.41 220.182 220.236 217.653 218.865C215.553 217.728 209.835 213.745 208.165 213.361C212.291 221.816 214.432 232.036 214.814 241.396Z"/>
	<path fill="#47CFDE" d="M162.494 424.187Q163.745 424.259 164.99 424.392Q166.236 424.525 167.473 424.719Q168.711 424.914 169.937 425.169Q171.164 425.424 172.376 425.74Q173.588 426.056 174.783 426.431Q175.979 426.806 177.154 427.239Q178.329 427.673 179.482 428.164Q180.634 428.655 181.761 429.202Q182.887 429.75 183.986 430.352Q185.084 430.955 186.151 431.61Q187.219 432.266 188.252 432.974Q189.286 433.682 190.283 434.44Q191.281 435.198 192.239 436.004Q193.198 436.81 194.116 437.663Q195.034 438.515 195.908 439.412Q196.783 440.309 197.612 441.248C212.882 458.421 210.622 475.985 210.562 496.988C201.099 496.986 191.577 497.203 182.121 496.941C154.723 497.272 127.289 496.971 99.8871 496.967L76.7762 496.963C72.4507 496.963 67.9337 496.699 63.6367 497.155C61.7775 497.353 60.3384 497.771 58.9733 499.123C57.5549 500.527 56.7611 502.612 56.4719 504.565C54.0241 504.667 51.5322 504.534 49.0775 504.556C46.0665 504.582 42.657 504.931 39.6973 504.458C39.5435 502.564 39.0354 500.796 37.6834 499.394C34.1971 495.779 24.2045 496.949 19.4474 496.978C19.4262 475.784 17.1418 457.851 32.8535 440.746C41.7215 431.092 54.3119 424.755 67.492 424.216C67.4136 433.43 68.3471 440.749 75.1637 447.608C80.9598 453.44 88.0808 455.402 96.1191 455.448L119.962 455.438C127.044 455.456 135.678 456.227 142.497 454.556Q143.367 454.345 144.221 454.075Q145.075 453.805 145.908 453.477Q146.741 453.149 147.55 452.764Q148.359 452.38 149.139 451.94Q149.919 451.501 150.667 451.009Q151.415 450.517 152.128 449.974Q152.84 449.432 153.513 448.841Q154.187 448.251 154.818 447.616C160.284 442.125 162.536 435.224 162.503 427.592L162.494 424.187Z"/>
	<path fill="#47CFDE" d="M312.182 255.48C312.149 250.154 312.03 244.738 312.409 239.426C313.559 223.315 321.757 207.922 333.983 197.47C353.947 180.404 371.715 182.497 395.781 182.48C404.703 182.473 414.467 181.966 423.31 182.679C434.918 183.014 446.655 187.553 456.04 194.267C458.79 196.234 461.602 199.528 464.993 200.259C467.476 200.794 469.834 199.438 471.796 198.081C474.891 201.084 479.988 207.866 481.606 211.886C479.57 213.032 477.841 214.66 477.208 216.981C476.244 220.519 478.783 225.208 479.705 228.602Q480.709 232.296 481.223 236.089C482.085 242.486 481.902 249.1 481.793 255.541C474.335 253.538 466.687 252.123 459.076 250.842C450.3 249.127 441.165 248.111 432.265 247.237C391.784 243.264 351.823 246.479 312.182 255.48Z"/>
	<path fill="#90A4AD" d="M214.627 438.779C242.174 438.794 269.774 439.174 297.314 438.785C287.139 455.166 286.394 465.9 286.401 484.427C286.404 491.144 286.329 497.869 286.413 504.584C277.318 504.134 268.087 504.442 258.979 504.437C247.875 504.432 236.715 504.182 225.618 504.555C225.268 484.873 228.012 465.641 219.389 447.209C218.056 444.358 216.492 441.326 214.627 438.779Z"/>
	<path fill="#EBAD88" d="M216.576 115.738C216.962 118.099 217.816 120.377 219.881 121.777C221.3 122.739 223.011 122.891 224.676 123.015C232.245 123.58 240.427 123.117 248.058 123.108L293.062 123.099C302.921 123.077 312.898 122.787 322.744 123.164C322.723 132.975 323.326 144.558 322.3 154.174Q322.148 155.564 321.937 156.946Q321.726 158.328 321.457 159.7Q321.188 161.072 320.861 162.431Q320.534 163.791 320.15 165.135Q319.765 166.479 319.325 167.806Q318.884 169.133 318.388 170.44Q317.892 171.747 317.34 173.032Q316.789 174.317 316.184 175.577Q315.579 176.838 314.922 178.071Q314.264 179.305 313.555 180.51Q312.845 181.715 312.086 182.889Q311.326 184.062 310.518 185.203Q309.709 186.343 308.853 187.449Q307.997 188.554 307.095 189.622Q306.193 190.691 305.246 191.72Q304.3 192.749 303.311 193.737C292.668 204.368 275.976 212.883 260.715 213.209C260.631 213.211 260.547 213.208 260.463 213.207C258.733 213.288 256.996 213.379 255.263 213.374Q253.64 213.36 252.019 213.268Q250.399 213.175 248.785 213.003Q247.171 212.831 245.567 212.581Q243.964 212.331 242.374 212.002Q240.784 211.674 239.213 211.269Q237.641 210.863 236.091 210.381Q234.541 209.9 233.016 209.343Q231.492 208.786 229.996 208.156Q228.5 207.526 227.037 206.823Q225.574 206.12 224.147 205.347Q222.72 204.574 221.332 203.732Q219.944 202.89 218.599 201.981Q217.254 201.073 215.955 200.1Q214.656 199.126 213.406 198.091Q212.156 197.056 210.958 195.96Q209.76 194.865 208.617 193.713Q206.812 191.898 205.152 189.949Q203.493 188 201.989 185.929Q200.484 183.858 199.145 181.677Q197.805 179.496 196.637 177.218C187.499 159.417 189.282 142.384 189.278 123.211C191.74 123.137 194.313 123.111 196.443 121.692C198.607 120.252 199.335 118.076 199.756 115.65C205.337 115.513 210.999 115.451 216.576 115.738Z"/>
	<path fill="#E58F6F" d="M293.062 123.099C302.921 123.077 312.898 122.787 322.744 123.164C322.723 132.975 323.326 144.558 322.3 154.174Q322.148 155.564 321.937 156.946Q321.726 158.328 321.457 159.7Q321.188 161.072 320.861 162.431Q320.534 163.791 320.15 165.135Q319.765 166.479 319.325 167.806Q318.884 169.133 318.388 170.44Q317.892 171.747 317.34 173.032Q316.789 174.317 316.184 175.577Q315.579 176.838 314.922 178.071Q314.264 179.305 313.555 180.51Q312.845 181.715 312.086 182.889Q311.326 184.062 310.518 185.203Q309.709 186.343 308.853 187.449Q307.997 188.554 307.095 189.622Q306.193 190.691 305.246 191.72Q304.3 192.749 303.311 193.737C292.668 204.368 275.976 212.883 260.715 213.209C260.631 213.211 260.547 213.208 260.463 213.207C260.583 212.952 260.645 212.659 260.824 212.441C261.319 211.836 269.358 206.949 271.109 205.659C273.344 204.013 275.438 202.112 277.437 200.186Q279.746 197.978 281.854 195.578Q283.962 193.178 285.853 190.603Q287.745 188.028 289.405 185.299Q291.065 182.57 292.481 179.706C302.11 160.196 299.821 143.97 300.192 123.33C298.621 123.341 294.29 123.8 293.062 123.099Z"/>
	<path fill="#EBAD88" d="M52.3602 290.553L181.743 290.533C181.726 300.52 182.312 311.1 181.331 321.021Q181.188 322.438 180.984 323.847Q180.78 325.257 180.516 326.656Q180.252 328.056 179.928 329.443Q179.603 330.829 179.22 332.201Q178.837 333.573 178.394 334.926Q177.952 336.28 177.453 337.614Q176.953 338.947 176.396 340.258Q175.84 341.569 175.227 342.855Q174.615 344.141 173.947 345.399Q173.28 346.657 172.56 347.885Q171.839 349.114 171.066 350.31Q170.294 351.506 169.47 352.668Q168.647 353.83 167.774 354.956Q166.902 356.081 165.981 357.168Q165.061 358.255 164.095 359.302Q163.129 360.348 162.119 361.352C151.145 372.293 134.911 380.322 119.224 380.599C117.782 380.716 116.341 380.748 114.895 380.757Q113.265 380.765 111.636 380.692Q110.007 380.619 108.384 380.466Q106.761 380.312 105.147 380.079Q103.533 379.846 101.933 379.533Q100.333 379.22 98.7501 378.829Q97.1673 378.438 95.6058 377.969Q94.0443 377.5 92.5079 376.954Q90.9714 376.408 89.4638 375.788Q87.9562 375.167 86.4811 374.472Q85.006 373.778 83.567 373.011Q82.128 372.245 80.7286 371.408Q79.3292 370.571 77.9729 369.666Q76.6165 368.762 75.3065 367.791Q73.9965 366.82 72.7361 365.786Q71.4756 364.752 70.2678 363.657Q69.06 362.562 67.9077 361.408Q66.9022 360.412 65.9403 359.375Q64.9785 358.337 64.062 357.259Q63.1456 356.181 62.2763 355.064Q61.407 353.948 60.5864 352.795Q59.7658 351.642 58.9955 350.455Q58.2252 349.269 57.5065 348.05Q56.7878 346.831 56.1221 345.582Q55.4563 344.334 54.8448 343.058Q54.2333 341.782 53.6772 340.481Q53.121 339.18 52.6212 337.856Q52.1214 336.532 51.6788 335.188Q51.2363 333.844 50.8519 332.482Q50.4674 331.12 50.1418 329.743Q49.8162 328.367 49.5499 326.977Q49.2837 325.587 49.0774 324.187Q48.8711 322.787 48.725 321.38C47.699 311.496 48.2819 300.529 48.2892 290.534L52.3602 290.553Z"/>
	<path fill="#E58F6F" d="M52.3602 290.553L181.743 290.533C181.726 300.52 182.312 311.1 181.331 321.021Q181.188 322.438 180.984 323.847Q180.78 325.257 180.516 326.656Q180.252 328.056 179.928 329.443Q179.603 330.829 179.22 332.201Q178.837 333.573 178.394 334.926Q177.952 336.28 177.453 337.614Q176.953 338.947 176.396 340.258Q175.84 341.569 175.227 342.855Q174.615 344.141 173.947 345.399Q173.28 346.657 172.56 347.885Q171.839 349.114 171.066 350.31Q170.294 351.506 169.47 352.668Q168.647 353.83 167.774 354.956Q166.902 356.081 165.981 357.168Q165.061 358.255 164.095 359.302Q163.129 360.348 162.119 361.352C151.145 372.293 134.911 380.322 119.224 380.599C120.456 378.838 124.313 377.134 126.215 375.841Q129.741 373.493 132.977 370.759Q136.214 368.025 139.119 364.942Q140.107 363.892 141.052 362.805Q141.998 361.717 142.9 360.593Q143.803 359.469 144.66 358.311Q145.518 357.152 146.329 355.961Q147.141 354.77 147.905 353.548Q148.669 352.326 149.385 351.075Q150.101 349.824 150.767 348.546Q151.433 347.268 152.049 345.965Q152.664 344.661 153.228 343.335Q153.792 342.009 154.304 340.661Q154.815 339.314 155.274 337.947Q155.732 336.581 156.137 335.197Q156.541 333.814 156.891 332.416Q157.241 331.018 157.536 329.607Q157.831 328.196 158.07 326.775Q158.31 325.354 158.493 323.924C159.264 317.68 159.232 311.417 159.234 305.139C159.235 300.361 159.288 295.574 159.136 290.798C150.066 290.587 140.944 290.779 131.87 290.778L80.0707 290.766L62.2791 290.8C59.147 290.807 55.4198 291.182 52.3602 290.553Z"/>
	<path fill="#47CFDE" d="M444.494 424.187Q445.748 424.258 446.998 424.391Q448.247 424.525 449.488 424.72Q450.729 424.915 451.959 425.171Q453.189 425.427 454.405 425.744Q455.621 426.061 456.819 426.438Q458.018 426.815 459.196 427.251Q460.375 427.686 461.53 428.18Q462.686 428.673 463.815 429.224Q464.945 429.774 466.046 430.379Q467.146 430.985 468.216 431.644Q469.285 432.304 470.321 433.015Q471.356 433.727 472.355 434.489Q473.354 435.251 474.314 436.061Q475.274 436.872 476.193 437.729Q477.112 438.586 477.987 439.488Q478.862 440.389 479.691 441.333C494.822 458.427 492.622 476.095 492.561 496.989C483.1 496.985 473.576 497.205 464.121 496.941C458.146 497.226 452.054 496.974 446.062 496.974L410.313 496.973L301.446 496.979C301.426 475.668 299.134 457.677 315.039 440.54C323.896 430.997 336.405 424.75 349.493 424.217L349.485 424.968C349.404 433.715 350.738 441.139 357.147 447.59C362.524 453.002 369.336 455.322 376.863 455.358L402.028 455.329C408.747 455.346 418.191 456.103 424.495 454.554Q425.365 454.343 426.219 454.072Q427.072 453.802 427.905 453.474Q428.739 453.145 429.547 452.761Q430.356 452.376 431.136 451.937Q431.916 451.497 432.664 451.005Q433.412 450.513 434.125 449.971Q434.838 449.429 435.512 448.839Q436.185 448.25 436.817 447.615C442.286 442.126 444.534 435.224 444.504 427.592L444.494 424.187Z"/>
	<path fill="#EBAD88" d="M334.36 290.553L463.741 290.532C463.723 300.422 464.323 311.56 463.299 321.321Q463.147 322.736 462.935 324.143Q462.722 325.549 462.45 326.946Q462.177 328.342 461.845 329.726Q461.513 331.109 461.122 332.477Q460.731 333.845 460.282 335.195Q459.832 336.545 459.325 337.874Q458.818 339.204 458.255 340.51Q457.691 341.817 457.072 343.098Q456.454 344.379 455.78 345.632Q455.107 346.886 454.38 348.109Q453.654 349.332 452.876 350.523Q452.098 351.714 451.269 352.871Q450.44 354.028 449.563 355.148Q448.685 356.268 447.761 357.349Q446.836 358.43 445.866 359.471Q444.896 360.512 443.882 361.51C432.974 372.331 416.79 380.368 401.224 380.595C399.508 380.741 397.781 380.756 396.059 380.755Q394.448 380.74 392.839 380.647Q391.23 380.554 389.628 380.382Q388.026 380.21 386.434 379.96Q384.842 379.71 383.265 379.383Q381.687 379.056 380.127 378.652Q378.567 378.248 377.029 377.768Q375.491 377.288 373.978 376.734Q372.465 376.18 370.98 375.552Q369.496 374.925 368.044 374.226Q366.593 373.527 365.177 372.757Q363.761 371.988 362.384 371.151Q361.008 370.313 359.674 369.41Q358.34 368.506 357.051 367.538Q355.763 366.57 354.523 365.541Q353.284 364.511 352.096 363.422Q350.908 362.334 349.775 361.188Q348.78 360.195 347.827 359.16Q346.875 358.125 345.968 357.051Q345.06 355.976 344.199 354.864Q343.339 353.753 342.526 352.605Q341.713 351.458 340.949 350.277Q340.186 349.096 339.473 347.883Q338.761 346.671 338.1 345.429Q337.44 344.188 336.833 342.919Q336.226 341.651 335.673 340.358Q335.121 339.064 334.624 337.749Q334.127 336.434 333.686 335.098Q333.245 333.763 332.861 332.41Q332.478 331.057 332.152 329.689Q331.826 328.321 331.559 326.94Q331.291 325.56 331.083 324.169Q330.874 322.778 330.725 321.38C329.693 311.505 330.282 300.522 330.289 290.534L334.36 290.553Z"/>
	<path fill="#E58F6F" d="M334.36 290.553L463.741 290.532C463.723 300.422 464.323 311.56 463.299 321.321Q463.147 322.736 462.935 324.143Q462.722 325.549 462.45 326.946Q462.177 328.342 461.845 329.726Q461.513 331.109 461.122 332.477Q460.731 333.845 460.282 335.195Q459.832 336.545 459.325 337.874Q458.818 339.204 458.255 340.51Q457.691 341.817 457.072 343.098Q456.454 344.379 455.78 345.632Q455.107 346.886 454.38 348.109Q453.654 349.332 452.876 350.523Q452.098 351.714 451.269 352.871Q450.44 354.028 449.563 355.148Q448.685 356.268 447.761 357.349Q446.836 358.43 445.866 359.471Q444.896 360.512 443.882 361.51C432.974 372.331 416.79 380.368 401.224 380.595C402.083 379.377 403.332 378.905 404.583 378.156Q409.134 375.451 413.272 372.148Q417.41 368.846 421.057 365.008Q422.048 363.957 422.996 362.868Q423.945 361.78 424.85 360.654Q425.755 359.529 426.616 358.369Q427.476 357.209 428.29 356.017Q429.104 354.824 429.871 353.6Q430.638 352.376 431.356 351.123Q432.074 349.87 432.742 348.59Q433.41 347.31 434.028 346.004Q434.646 344.699 435.211 343.37Q435.777 342.042 436.29 340.692Q436.804 339.342 437.264 337.973Q437.724 336.604 438.129 335.218Q438.535 333.832 438.886 332.431Q439.237 331.031 439.533 329.617Q439.829 328.203 440.069 326.779Q440.309 325.355 440.493 323.923C441.265 317.68 441.233 311.417 441.234 305.139C441.234 300.361 441.286 295.574 441.136 290.798C431.937 290.639 422.716 290.77 413.514 290.769L362.365 290.77L344.283 290.799C341.151 290.804 337.419 291.184 334.36 290.553Z"/>
	<path fill="#F44138" d="M232.591 15.11Q235.086 15.0092 237.584 15.0217L265.765 15.0091C272.855 15.0116 280.083 14.7922 287.138 15.6487C300.497 17.2707 313.203 23.9502 322.657 33.4227C332.188 42.9718 338.782 55.8611 340.337 69.3192C341.05 75.4856 340.836 81.8241 340.847 88.0227C320.624 83.1806 300.257 80.497 279.562 78.7884C241.181 76.4292 208.513 79.9255 171.159 88.0283C171.163 82.0702 170.958 75.9858 171.577 70.0588C172.915 57.2476 178.808 44.7058 187.535 35.2709C199.667 22.1543 214.915 15.7891 232.591 15.11Z"/>
	<path fill="#47CFDE" d="M30.1823 255.472C30.1629 250.963 30.1041 246.424 30.2674 241.918Q30.3309 240.407 30.4683 238.902Q30.6057 237.396 30.8168 235.898Q31.0278 234.401 31.3119 232.916Q31.596 231.431 31.9526 229.962Q32.3091 228.492 32.7372 227.042Q33.1653 225.592 33.6639 224.165Q34.1625 222.737 34.7305 221.336Q35.2985 219.934 35.9344 218.563Q36.5703 217.191 37.2726 215.852Q37.975 214.513 38.7421 213.21Q39.5092 211.907 40.3393 210.643Q41.1693 209.379 42.0602 208.158Q42.9512 206.936 43.9009 205.759Q44.8506 204.583 45.8568 203.454Q46.8631 202.326 47.9234 201.248Q48.9837 200.17 50.0955 199.145Q51.0328 198.27 52.0056 197.434Q52.9783 196.598 53.9848 195.803Q54.9914 195.009 56.03 194.256Q57.0686 193.504 58.1375 192.795Q59.2063 192.086 60.3036 191.423Q61.4009 190.759 62.5248 190.141Q63.6487 189.523 64.7972 188.952Q65.9457 188.382 67.1168 187.859Q68.2879 187.336 69.4797 186.863Q70.6715 186.389 71.8819 185.965Q73.0923 185.541 74.3192 185.168Q75.5461 184.794 76.7875 184.472Q78.0288 184.15 79.2824 183.879Q80.536 183.609 81.7998 183.39Q83.0635 183.172 84.3352 183.006Q85.6069 182.84 86.8844 182.727C94.9321 182.027 103.324 182.475 111.409 182.481C121.322 182.487 131.313 182.213 141.216 182.593Q142.749 182.682 144.276 182.847Q145.803 183.011 147.319 183.251Q148.836 183.491 150.339 183.806Q151.842 184.121 153.328 184.51Q154.814 184.899 156.278 185.36Q157.743 185.822 159.183 186.356Q160.623 186.89 162.034 187.494Q163.446 188.098 164.826 188.772Q166.206 189.445 167.551 190.186Q168.897 190.927 170.203 191.733Q171.51 192.54 172.775 193.41Q174.041 194.28 175.261 195.212Q176.482 196.144 177.655 197.135Q178.828 198.126 179.951 199.173Q181.074 200.221 182.143 201.323Q183.212 202.425 184.226 203.579Q185.007 204.461 185.754 205.372Q186.501 206.284 187.212 207.223Q187.924 208.161 188.6 209.126Q189.276 210.091 189.915 211.081Q190.553 212.071 191.154 213.085Q191.755 214.098 192.317 215.134Q192.879 216.169 193.402 217.225Q193.925 218.281 194.407 219.356Q194.889 220.431 195.33 221.523Q195.771 222.616 196.171 223.724Q196.57 224.833 196.928 225.955Q197.285 227.078 197.6 228.213Q197.914 229.349 198.185 230.495Q198.457 231.642 198.685 232.798Q198.912 233.954 199.096 235.117Q199.28 236.281 199.42 237.451C200.076 243.412 199.905 249.542 199.793 255.531Q188.536 252.692 177.075 250.842C168.709 249.265 160.113 248.251 151.647 247.376C110.715 243.148 70.2654 246.417 30.1823 255.472Z"/>
	<path fill="#F44138" d="M278.525 256.555L297.126 256.517L297.199 259.802C292.508 261.593 286.436 263.492 283.519 267.891C281.812 270.466 281.781 273.439 282.417 276.367C283.466 281.191 286.256 285.159 290.42 287.806C287.29 296.077 287.158 305.845 288.812 314.454C290.41 322.777 294.46 331.485 301.723 336.3C307.199 339.93 312.927 340.208 319.212 338.975C320.057 342.368 321.605 345.799 323.102 348.957C329.596 362.661 339.305 373.455 351.637 382.114C351.239 389.815 351.543 397.658 351.552 405.375L351.577 408.988C339.193 409.744 328.622 412.429 317.903 418.823C315.473 420.273 313.338 422.196 310.902 423.635L310.709 423.747L278.511 423.77L278.525 256.555Z"/>
	<path fill="#F44138" d="M214.942 256.54L233.516 256.555C233.178 275.311 233.498 294.123 233.497 312.888L233.499 423.776C222.72 423.627 211.915 423.747 201.134 423.788C192.802 417.581 184.33 413.163 174.161 410.699C169.555 409.751 165.116 409.3 160.435 408.973Q160.527 395.555 160.397 382.138C175.408 371.866 187.628 356.595 192.825 339.01C197.025 339.959 201.496 340.022 205.596 338.614C212.056 336.395 216.766 331.045 219.7 325.042C225.185 313.824 225.575 299.563 221.584 287.834Q222.15 287.478 222.688 287.08Q223.225 286.682 223.732 286.246Q224.238 285.809 224.711 285.336Q225.184 284.863 225.62 284.356Q226.056 283.849 226.453 283.311Q226.85 282.773 227.205 282.206Q227.561 281.64 227.874 281.049Q228.186 280.458 228.454 279.845C229.824 276.673 230.678 272.556 229.256 269.282C226.935 263.938 219.728 261.729 214.781 259.724C214.777 258.665 214.877 257.598 214.942 256.54Z"/>
	<path fill="#DDDCDC" d="M248.589 256.606C253.542 256.755 258.535 256.611 263.494 256.671L263.492 423.755L248.519 423.737L248.515 314.625L248.514 276.186C248.514 269.702 248.172 263.064 248.589 256.606Z"/>
	<path fill="#FEC106" d="M157.377 107.973C169.29 102.846 183.556 100.292 196.306 98.2438C237.682 91.5986 275.216 91.3696 316.53 98.3936C329.387 100.58 342.42 103.223 354.622 107.917C350.309 108.156 345.945 108.045 341.625 108.046L320.572 108.05L255.879 108.055L236.19 108.038C232.346 108.027 228.366 107.814 224.536 108.13C222.804 108.272 221.022 108.54 219.597 109.613C217.634 111.092 216.854 113.388 216.576 115.738C210.999 115.451 205.337 115.513 199.756 115.65C199.461 113.641 198.906 111.797 197.482 110.278C196.478 109.206 195.197 108.669 193.774 108.404C189.642 107.635 184.935 108.032 180.728 108.035Q169.052 108.116 157.377 107.973Z"/>
	<path fill="#FEC106" d="M105.639 260.611C133.698 259.612 162.757 262.732 190.185 268.675C198.026 270.374 206.251 272.183 213.564 275.567C202.896 275.376 192.206 275.51 181.535 275.51L124.375 275.513L53.008 275.509L30.5717 275.509C25.796 275.51 20.9672 275.352 16.2049 275.724C37.4547 265.901 81.5686 261.593 105.639 260.611Z"/>
	<path fill="#FEC106" d="M387.639 260.611C415.743 259.673 444.713 262.722 472.185 268.675C480.014 270.372 488.236 272.177 495.538 275.556C484.972 275.388 474.388 275.51 463.82 275.51L406.375 275.513L335.021 275.509L312.676 275.509C307.857 275.51 302.985 275.355 298.179 275.724C319.593 265.889 363.451 261.598 387.639 260.611Z"/>
	<path fill="#DDDCDC" d="M364.511 424.018L429.493 424.036C429.551 429.118 429.703 433.091 426.045 437.127C423.357 439.504 420.744 440.236 417.235 440.36C408.626 440.662 399.925 440.375 391.306 440.385C386.584 440.391 377.453 440.916 373.397 440.062C371.32 439.625 369.341 438.512 367.83 437.031C364.171 433.448 364.471 428.703 364.511 424.018Z"/>
	<path fill="#DDDCDC" d="M82.5119 424.018L147.494 424.036C147.552 429.08 147.742 432.942 144.178 436.992C142.025 439.031 139.478 440.162 136.5 440.269C126.835 440.616 117.039 440.313 107.36 440.31C103.166 440.308 94.97 440.814 91.379 440.055C89.3133 439.618 87.3369 438.501 85.8317 437.03C82.172 433.452 82.4706 428.7 82.5119 424.018Z"/>
	<path fill="#E58F6F" d="M99.5208 394.363C107.758 396.704 122.087 396.181 130.494 394.394L130.489 408.301L130.403 408.729C129.597 409.319 102.799 408.959 99.5064 408.959L99.5208 394.363Z"/>
	<path fill="#E58F6F" d="M381.521 394.363C389.751 396.709 404.091 396.179 412.494 394.394L412.489 408.301L412.433 408.667C412.295 408.768 412.179 408.911 412.018 408.972C411.296 409.243 384.671 408.96 381.506 408.96L381.521 394.363Z"/>
	<path fill="#E58F6F" d="M240.507 227.147C246.553 227.893 252.527 228.62 258.634 228.4C262.962 228.245 267.218 227.588 271.522 227.178C271.403 231.63 271.495 236.108 271.489 240.562L271.425 241.252C271.292 241.341 271.179 241.47 271.026 241.518C270.079 241.815 243.631 241.495 240.511 241.495L240.507 227.147Z"/>
	<path fill="#E58F6F" d="M164.651 123.083C167.841 123.213 171.077 123.107 174.273 123.128C174.186 130.852 174.153 138.614 174.278 146.337C174.333 149.77 174.758 153.232 174.655 156.659C174.05 157.201 173.072 157.221 172.294 157.337C171.349 157.235 170.462 157.087 169.606 156.651C166.429 155.033 164.657 151.331 163.603 148.084C161.087 140.341 160.937 130.47 164.651 123.083Z"/>
	<path fill="#E58F6F" d="M305.6 290.523L315.264 290.564C315.225 301.862 315.035 313.145 315.802 324.423L312.826 324.751C312.071 324.616 311.315 324.448 310.622 324.106C307.781 322.706 306.055 319.476 304.983 316.623C301.909 308.437 302.023 298.504 305.6 290.523Z"/>
	<path fill="#E58F6F" d="M23.6022 290.523L33.2644 290.565C33.2247 301.863 33.0365 313.145 33.8015 324.423L30.8255 324.748C30.07 324.615 29.3155 324.448 28.6222 324.107C25.7809 322.707 24.0549 319.475 22.9836 316.623C19.9112 308.441 20.0201 298.499 23.6022 290.523Z"/>
	<path fill="#E58F6F" d="M478.756 290.564L488.411 290.516C489.058 291.993 489.688 293.458 490.097 295.022C492.338 303.591 491.263 313.347 486.779 321.005C486.1 321.9 485.329 322.822 484.419 323.49C482.47 324.921 480.461 324.686 478.215 324.396C478.883 313.105 478.767 301.873 478.756 290.564Z"/>
	<path fill="#E58F6F" d="M196.756 290.564L206.409 290.516C207.073 292.025 207.704 293.518 208.121 295.117C210.344 303.65 209.237 313.391 204.778 321.01C204.098 321.903 203.328 322.824 202.42 323.491C200.467 324.925 198.461 324.686 196.213 324.39C196.945 313.112 196.767 301.862 196.756 290.564Z"/>
	<path fill="#E58F6F" d="M340.673 123.12C342.936 123.074 345.181 123.076 347.443 123.158C348.591 125.608 349.336 128.061 349.754 130.738C351.019 138.834 349.777 147.979 344.891 154.706C344.327 155.26 343.722 155.84 343.061 156.276C341.172 157.522 339.315 157.3 337.221 156.906C337.921 145.652 337.764 134.439 337.75 123.167L340.673 123.12Z"/>
</svg>
